<?xml version="1.0" encoding="utf-8"?><svg viewBox="0 0 128 24" xmlns="http://www.w3.org/2000/svg" xmlns:xlink="http://www.w3.org/1999/xlink"><style>:root>svg{display:none}:root>svg:target{display:block}</style><svg viewBox="0 0 8 16" id="facebook" xmlns="http://www.w3.org/2000/svg"><path d="M5.164 15.498v-6.83h2.304l.343-2.675H5.164V4.29c0-.772.215-1.3 1.323-1.3H7.89V.606A18.613 18.613 0 0 0 5.834.5C3.798.5 2.4 1.743 2.4 4.026v1.962H.11v2.675h2.294v6.835h2.76Z"/></svg><svg viewBox="0 0 20 20" id="instagram" xmlns="http://www.w3.org/2000/svg"><path d="M9.999 6.147a3.852 3.852 0 1 0 0 7.705 3.852 3.852 0 0 0 0-7.705Zm0 6.356a2.503 2.503 0 1 1 0-5.006 2.503 2.503 0 0 1 0 5.006ZM14.005 6.904a.898.898 0 1 0 0-1.797.898.898 0 0 0 0 1.797Z"/><path d="M17.11 5.093a3.837 3.837 0 0 0-2.194-2.194 5.506 5.506 0 0 0-1.821-.35c-.803-.035-1.057-.045-3.092-.045s-2.296 0-3.092.045a5.462 5.462 0 0 0-1.82.35 3.833 3.833 0 0 0-2.194 2.194 5.487 5.487 0 0 0-.349 1.821c-.036.802-.047 1.056-.047 3.092 0 2.035 0 2.294.047 3.092.013.623.13 1.238.35 1.822a3.841 3.841 0 0 0 2.194 2.194c.58.226 1.196.355 1.821.375.803.035 1.057.045 3.092.045s2.296 0 3.091-.045a5.513 5.513 0 0 0 1.822-.35 3.844 3.844 0 0 0 2.194-2.194c.22-.583.337-1.198.35-1.821.035-.802.046-1.056.046-3.092s0-2.294-.046-3.092a5.484 5.484 0 0 0-.351-1.847Zm-1.014 7.943c-.006.48-.093.956-.26 1.407a2.49 2.49 0 0 1-1.426 1.426 4.153 4.153 0 0 1-1.392.259c-.792.036-1.015.046-3.045.046-2.032 0-2.239 0-3.046-.046a4.133 4.133 0 0 1-1.39-.26 2.487 2.487 0 0 1-1.433-1.425 4.234 4.234 0 0 1-.26-1.391c-.035-.792-.043-1.015-.043-3.045 0-2.03 0-2.238.044-3.046.006-.48.092-.955.259-1.406A2.489 2.489 0 0 1 5.536 4.13a4.174 4.174 0 0 1 1.391-.26c.793-.035 1.015-.045 3.046-.045 2.031 0 2.24 0 3.045.045.476.006.946.094 1.392.26.655.252 1.172.77 1.426 1.426.164.445.252.916.26 1.391.035.793.045 1.015.045 3.046 0 2.03 0 2.248-.036 3.045h-.01Z"/></svg><svg viewBox="0 0 20 20" id="linkedin" xmlns="http://www.w3.org/2000/svg"><path d="M4.152 5.998a1.823 1.823 0 1 0 0-3.647 1.823 1.823 0 0 0 0 3.647ZM7.697 7.38v10.115h3.141v-5.002c0-1.32.249-2.599 1.885-2.599 1.614 0 1.634 1.51 1.634 2.682v4.92H17.5V11.95c0-2.725-.587-4.82-3.772-4.82-1.529 0-2.554.84-2.973 1.634h-.043V7.379H7.697Zm-5.118 0h3.146v10.115H2.579V7.38Z"/></svg><svg fill="none" viewBox="0 0 128 24" id="score" xmlns="http://www.w3.org/2000/svg"><path d="M21.947 9.179a1.001 1.001 0 0 0-.868-.676l-5.701-.453-2.467-5.461a.998.998 0 0 0-1.822-.001L8.622 8.05l-5.701.453a1 1 0 0 0-.619 1.713l4.213 4.107-1.49 6.452a1 1 0 0 0 1.53 1.057L12 18.202l5.445 3.63a1.001 1.001 0 0 0 1.517-1.106l-1.829-6.4 4.536-4.082c.297-.268.406-.686.278-1.065ZM47.947 9.179a1.001 1.001 0 0 0-.868-.676l-5.701-.453-2.467-5.461a.998.998 0 0 0-1.822-.001L34.622 8.05l-5.701.453a1 1 0 0 0-.619 1.713l4.213 4.107-1.49 6.452a1 1 0 0 0 1.53 1.057L38 18.202l5.445 3.63a1.001 1.001 0 0 0 1.517-1.106l-1.829-6.4 4.536-4.082c.297-.268.406-.686.278-1.065ZM73.947 9.179a1.001 1.001 0 0 0-.868-.676l-5.701-.453-2.467-5.461a.998.998 0 0 0-1.822-.001L60.622 8.05l-5.701.453a1 1 0 0 0-.619 1.713l4.213 4.107-1.49 6.452a1 1 0 0 0 1.53 1.057L64 18.202l5.445 3.63a1.001 1.001 0 0 0 1.517-1.106l-1.829-6.4 4.536-4.082c.297-.268.406-.686.278-1.065ZM99.947 9.179a1.001 1.001 0 0 0-.868-.676l-5.701-.453-2.467-5.461a.998.998 0 0 0-1.822-.001L86.622 8.05l-5.701.453a1 1 0 0 0-.619 1.713l4.213 4.107-1.49 6.452a1 1 0 0 0 1.53 1.057L90 18.202l5.445 3.63a1.001 1.001 0 0 0 1.517-1.106l-1.829-6.4 4.536-4.082c.297-.268.406-.686.278-1.065ZM125.947 9.179a1.001 1.001 0 0 0-.868-.676l-5.701-.453-2.467-5.461a.998.998 0 0 0-1.822-.001l-2.467 5.462-5.701.453a1 1 0 0 0-.619 1.713l4.213 4.107-1.49 6.452a1 1 0 0 0 1.53 1.057l5.445-3.63 5.445 3.63a1.001 1.001 0 0 0 1.517-1.106l-1.829-6.4 4.536-4.082c.297-.268.406-.686.278-1.065Z" fill="#fff"/></svg><svg viewBox="0 0 18 14" id="twitter" xmlns="http://www.w3.org/2000/svg"><path d="M15.36 3.664c.012.146.012.291.012.436 0 4.437-3.378 9.55-9.55 9.55a9.484 9.484 0 0 1-5.155-1.507c.27.031.53.042.81.042 1.57 0 3.014-.53 4.168-1.434a3.363 3.363 0 0 1-3.14-2.328c.208.031.417.052.635.052.3 0 .603-.042.884-.114a3.356 3.356 0 0 1-2.691-3.294v-.042c.447.25.966.405 1.516.426a3.352 3.352 0 0 1-1.496-2.795c0-.624.165-1.195.456-1.694a9.547 9.547 0 0 0 6.922 3.513 3.815 3.815 0 0 1-.083-.77A3.355 3.355 0 0 1 12.004.35c.967 0 1.84.405 2.453 1.06a6.63 6.63 0 0 0 2.13-.81 3.35 3.35 0 0 1-1.476 1.85 6.728 6.728 0 0 0 1.932-.52 7.205 7.205 0 0 1-1.682 1.735Z"/></svg></svg>